<svg width="144" height="82" fill="none" xmlns="http://www.w3.org/2000/svg"><path fill="#002766" d="M0 0h72v64H0z"/><path d="M23.576 39.14c-1.106 0-2.1-.233-2.98-.7a5.162 5.162 0 0 1-2.06-1.94c-.493-.84-.74-1.786-.74-2.84 0-1.053.247-1.993.74-2.82a5.194 5.194 0 0 1 2.04-1.94c.88-.466 1.88-.7 3-.7 1.054 0 1.974.213 2.76.64.8.427 1.4 1.04 1.8 1.84l-1.92 1.12c-.306-.493-.693-.86-1.16-1.1a3.022 3.022 0 0 0-1.5-.38c-.933 0-1.706.307-2.32.92-.613.6-.92 1.407-.92 2.42 0 1.014.3 1.827.9 2.44.614.6 1.394.9 2.34.9.547 0 1.047-.12 1.5-.36a3.106 3.106 0 0 0 1.16-1.12l1.92 1.12c-.413.8-1.02 1.42-1.82 1.86-.786.427-1.7.64-2.74.64ZM36.92 28.2c1.04 0 1.966.227 2.78.68a4.885 4.885 0 0 1 1.94 1.92c.466.827.7 1.78.7 2.86 0 1.08-.234 2.04-.7 2.88a4.886 4.886 0 0 1-1.94 1.92c-.814.453-1.74.68-2.78.68a5.242 5.242 0 0 1-2.02-.38 3.885 3.885 0 0 1-1.52-1.14V39H31V24.16h2.5v5.46a4.22 4.22 0 0 1 1.5-1.06 5.023 5.023 0 0 1 1.92-.36Zm-.28 8.8c.92 0 1.673-.306 2.26-.92.6-.613.9-1.42.9-2.42s-.3-1.806-.9-2.42c-.587-.613-1.34-.92-2.26-.92-.6 0-1.14.14-1.62.42-.48.267-.86.654-1.14 1.16-.28.507-.42 1.093-.42 1.76s.14 1.254.42 1.76c.28.507.66.9 1.14 1.18.48.267 1.02.4 1.62.4ZM48.81 39.14a9.564 9.564 0 0 1-2.54-.34c-.826-.226-1.486-.513-1.98-.86l.96-1.9c.48.32 1.054.58 1.72.78.68.187 1.347.28 2 .28 1.494 0 2.24-.393 2.24-1.18 0-.373-.193-.633-.58-.78-.373-.147-.98-.287-1.82-.42-.88-.133-1.6-.286-2.16-.46a3.421 3.421 0 0 1-1.44-.9c-.4-.44-.6-1.047-.6-1.82 0-1.013.42-1.82 1.26-2.42.854-.613 2-.92 3.44-.92.734 0 1.467.087 2.2.26.734.16 1.334.38 1.8.66l-.96 1.9c-.906-.533-1.926-.8-3.06-.8-.733 0-1.293.114-1.68.34-.373.213-.56.5-.56.86 0 .4.2.687.6.86.414.16 1.047.313 1.9.46.854.133 1.554.287 2.1.46a3.215 3.215 0 0 1 1.4.88c.4.413.6 1 .6 1.76 0 1-.433 1.8-1.3 2.4-.866.6-2.046.9-3.54.9Z" fill="#fff"/><path fill="#1388F7" d="M72 0h72v64H72z"/><path d="M91.088 28.32v9.06c0 3.76-1.92 5.64-5.76 5.64-1.027 0-2-.133-2.92-.4-.92-.253-1.68-.627-2.28-1.12l1.12-1.88c.466.387 1.053.694 1.76.92.72.24 1.446.36 2.18.36 1.173 0 2.033-.267 2.58-.8.546-.533.82-1.346.82-2.44v-.56a4.11 4.11 0 0 1-1.56 1.06c-.614.24-1.287.36-2.02.36-1.014 0-1.934-.213-2.76-.64a5.045 5.045 0 0 1-1.94-1.84c-.467-.786-.7-1.687-.7-2.7 0-1.013.233-1.907.7-2.68a4.9 4.9 0 0 1 1.94-1.82c.826-.427 1.746-.64 2.76-.64.773 0 1.473.127 2.1.38a3.88 3.88 0 0 1 1.6 1.16v-1.42h2.38Zm-5.7 8.08c.946 0 1.72-.28 2.32-.84.613-.573.92-1.313.92-2.22 0-.893-.307-1.62-.92-2.18-.6-.56-1.374-.84-2.32-.84-.96 0-1.747.28-2.36.84-.6.56-.9 1.287-.9 2.18 0 .907.3 1.647.9 2.22.613.56 1.4.84 2.36.84ZM95.954 29.88c.72-1.12 1.987-1.68 3.8-1.68v2.38a3.174 3.174 0 0 0-.58-.06c-.973 0-1.733.287-2.28.86-.546.56-.82 1.374-.82 2.44V39h-2.5V28.32h2.38v1.56ZM105.778 39.14c-1.08 0-2.054-.233-2.92-.7a5.191 5.191 0 0 1-2.04-1.94c-.48-.84-.72-1.786-.72-2.84 0-1.053.24-1.993.72-2.82a5.191 5.191 0 0 1 2.04-1.94c.866-.466 1.84-.7 2.92-.7 1.093 0 2.073.233 2.94.7a5.06 5.06 0 0 1 2.02 1.94c.493.827.74 1.767.74 2.82 0 1.054-.247 2-.74 2.84a5.06 5.06 0 0 1-2.02 1.94c-.867.467-1.847.7-2.94.7Zm0-2.14c.92 0 1.68-.306 2.28-.92.6-.613.9-1.42.9-2.42s-.3-1.806-.9-2.42c-.6-.613-1.36-.92-2.28-.92-.92 0-1.68.307-2.28.92-.587.614-.88 1.42-.88 2.42s.293 1.807.88 2.42c.6.614 1.36.92 2.28.92ZM123.408 28.32V39h-2.38v-1.36c-.4.48-.9.853-1.5 1.12-.6.254-1.247.38-1.94.38-1.427 0-2.553-.393-3.38-1.18-.813-.8-1.22-1.98-1.22-3.54v-6.1h2.5v5.76c0 .96.213 1.68.64 2.16.44.467 1.06.7 1.86.7.893 0 1.6-.273 2.12-.82.533-.56.8-1.36.8-2.4v-5.4h2.5ZM131.801 28.2c1.04 0 1.967.227 2.78.68a4.88 4.88 0 0 1 1.94 1.92c.467.827.7 1.78.7 2.86 0 1.08-.233 2.04-.7 2.88a4.88 4.88 0 0 1-1.94 1.92c-.813.453-1.74.68-2.78.68-1.44 0-2.58-.48-3.42-1.44v5.18h-2.5V28.32h2.38v1.4c.414-.506.92-.886 1.52-1.14a5.245 5.245 0 0 1 2.02-.38Zm-.28 8.8c.92 0 1.674-.306 2.26-.92.6-.613.9-1.42.9-2.42s-.3-1.806-.9-2.42c-.586-.613-1.34-.92-2.26-.92-.6 0-1.14.14-1.62.42-.48.267-.86.654-1.14 1.16-.28.507-.42 1.093-.42 1.76s.14 1.254.42 1.76c.28.507.66.9 1.14 1.18.48.267 1.02.4 1.62.4Z" fill="#fff"/><path d="M7.584 77.992v2.484h-1.08V79H1.188v1.476H.096v-2.484h.336c.408-.024.688-.312.84-.864.152-.552.256-1.332.312-2.34l.096-2.148h4.932v5.352h.972Zm-4.944-3.12c-.032.8-.1 1.464-.204 1.992-.096.52-.276.896-.54 1.128H5.46v-4.344H2.7l-.06 1.224ZM13.417 72.58c.616 0 1.168.136 1.656.408.488.272.868.652 1.14 1.14.28.488.42 1.052.42 1.692 0 .64-.14 1.208-.42 1.704a2.894 2.894 0 0 1-1.14 1.14 3.343 3.343 0 0 1-1.656.408c-.456 0-.876-.088-1.26-.264a2.621 2.621 0 0 1-.96-.768v3.288h-1.152V72.64h1.104v1.008c.256-.352.58-.616.972-.792a3.012 3.012 0 0 1 1.296-.276Zm-.096 5.484a2.15 2.15 0 0 0 1.092-.276 2.03 2.03 0 0 0 .768-.792c.192-.344.288-.736.288-1.176 0-.44-.096-.828-.288-1.164a1.93 1.93 0 0 0-.768-.792 2.15 2.15 0 0 0-1.092-.276c-.4 0-.764.096-1.092.288-.32.184-.576.444-.768.78a2.385 2.385 0 0 0-.276 1.164c0 .44.092.832.276 1.176.184.336.44.6.768.792.328.184.692.276 1.092.276ZM24.767 72.64l-3.084 6.996c-.272.648-.592 1.104-.96 1.368-.36.264-.796.396-1.308.396-.312 0-.616-.052-.912-.156a1.807 1.807 0 0 1-.72-.432l.492-.864c.328.312.708.468 1.14.468.28 0 .512-.076.696-.228.192-.144.364-.396.516-.756l.204-.444-2.808-6.348h1.2l2.22 5.088 2.196-5.088h1.128ZM32.327 76.312H31.09V79h-1.152v-2.688h-1.236L26.95 79h-1.368l2.184-3.288-2.016-3.072h1.224l1.716 2.688h1.248V72.64h1.152v2.688h1.248l1.716-2.688h1.236l-2.016 3.084L35.459 79H34.09l-1.764-2.688ZM37.686 72.64h1.152v4.632l3.9-4.632h1.044V79H42.63v-4.632L38.742 79h-1.056v-6.36ZM54.31 72.64V79h-1.044v-4.644L50.89 78.28h-.504l-2.352-3.936V79h-1.056v-6.36h1.188l2.496 4.296 2.568-4.296h1.08ZM85.739 77.992v2.532h-1.092V79h-5.7v-6.36h1.152v5.352h3.48V72.64h1.152v5.352h1.008ZM88.192 72.64h1.152v4.632l3.9-4.632h1.044V79h-1.152v-4.632L89.248 79h-1.056v-6.36ZM105.512 75.808c0 .984-.328 1.76-.984 2.328-.656.568-1.58.884-2.772.948v2.244h-1.128v-2.244c-1.192-.064-2.116-.376-2.772-.936-.648-.568-.972-1.348-.972-2.34 0-.984.324-1.752.972-2.304.648-.552 1.572-.86 2.772-.924v-2.484h1.128v2.484c1.192.064 2.116.376 2.772.936.656.552.984 1.316.984 2.292Zm-7.488 0c0 .68.216 1.212.648 1.596.44.384 1.092.604 1.956.66V73.6c-.872.056-1.524.272-1.956.648-.432.376-.648.896-.648 1.56Zm3.732 2.268c1.744-.136 2.616-.892 2.616-2.268 0-.672-.22-1.192-.66-1.56-.44-.376-1.092-.592-1.956-.648v4.476ZM111.472 72.58c.616 0 1.168.136 1.656.408.488.272.868.652 1.14 1.14.28.488.42 1.052.42 1.692 0 .64-.14 1.208-.42 1.704a2.894 2.894 0 0 1-1.14 1.14 3.343 3.343 0 0 1-1.656.408c-.456 0-.876-.088-1.26-.264a2.621 2.621 0 0 1-.96-.768v3.288H108.1V72.64h1.104v1.008c.256-.352.58-.616.972-.792a3.012 3.012 0 0 1 1.296-.276Zm-.096 5.484a2.15 2.15 0 0 0 1.092-.276 2.03 2.03 0 0 0 .768-.792c.192-.344.288-.736.288-1.176 0-.44-.096-.828-.288-1.164a1.93 1.93 0 0 0-.768-.792 2.15 2.15 0 0 0-1.092-.276c-.4 0-.764.096-1.092.288-.32.184-.576.444-.768.78a2.385 2.385 0 0 0-.276 1.164c0 .44.092.832.276 1.176.184.336.44.6.768.792.328.184.692.276 1.092.276ZM119.531 72.58c.88 0 1.552.216 2.016.648.472.432.708 1.076.708 1.932V79h-1.092v-.84a1.853 1.853 0 0 1-.828.684c-.352.152-.772.228-1.26.228-.712 0-1.284-.172-1.716-.516-.424-.344-.636-.796-.636-1.356s.204-1.008.612-1.344c.408-.344 1.056-.516 1.944-.516h1.824v-.228c0-.496-.144-.876-.432-1.14-.288-.264-.712-.396-1.272-.396-.376 0-.744.064-1.104.192a2.76 2.76 0 0 0-.912.492l-.48-.864c.328-.264.72-.464 1.176-.6.456-.144.94-.216 1.452-.216Zm-.264 5.604c.44 0 .82-.096 1.14-.288.32-.2.552-.48.696-.84v-.888h-1.776c-.976 0-1.464.328-1.464.984 0 .32.124.572.372.756.248.184.592.276 1.032.276ZM132.622 72.64V79h-1.044v-4.644l-2.376 3.924h-.504l-2.352-3.936V79h-1.056v-6.36h1.188l2.496 4.296 2.568-4.296h1.08ZM135.824 72.64h1.152v4.632l3.9-4.632h1.044V79h-1.152v-4.632L136.88 79h-1.056v-6.36Z" fill="#002766"/><path fill-rule="evenodd" clip-rule="evenodd" d="M69.277 70c-.724 0-1.19.086-1.726.348a3.088 3.088 0 0 0-.556.35 3.15 3.15 0 0 0-.534-.334c-.545-.27-1.036-.364-1.734-.364-1.869 0-3.227 1.549-3.227 3.56 0 1.519.847 2.986 2.424 4.405.828.745 1.886 1.482 2.643 1.874l.433.224.433-.224c.757-.392 1.815-1.13 2.643-1.874 1.577-1.419 2.424-2.886 2.424-4.405 0-1.99-1.371-3.552-3.223-3.56Zm2.223 3.56c0 1.19-.707 2.415-2.093 3.661-.756.68-1.727 1.36-2.407 1.716-.68-.356-1.651-1.036-2.407-1.716-1.386-1.246-2.093-2.471-2.093-3.661 0-1.486.942-2.56 2.227-2.56.555 0 .897.066 1.29.26.233.115.438.267.616.457l.368.392.365-.395c.182-.198.39-.353.625-.468.382-.187.703-.246 1.284-.246 1.27.005 2.225 1.094 2.225 2.56Z" fill="#FF3334"/></svg>